<svg xmlns="http://www.w3.org/2000/svg" viewBox="0 0 64 64" width="64" height="64">
  <!-- 渐变定义 -->
  <defs>
    <linearGradient id="blueRiseGradient" x1="0%" y1="100%" x2="0%" y2="0%">
      <stop offset="0%" stop-color="#1a4a73" /> <!-- 深蓝色底部 -->
      <stop offset="40%" stop-color="#3498db" /> <!-- 中间蓝色 -->
      <stop offset="80%" stop-color="#7bcdee" /> <!-- 浅青色 -->
      <stop offset="100%" stop-color="#a7e2ff" /> <!-- 顶部最亮的青色 -->
    </linearGradient>
    <filter id="glow" x="-20%" y="-20%" width="140%" height="140%">
      <feGaussianBlur stdDeviation="2" result="blur" />
      <feComposite in="SourceGraphic" in2="blur" operator="over" />
    </filter>
  </defs>
  
  <!-- 圆形背景 -->
  <circle cx="32" cy="32" r="30" fill="#f8f9fa" />
  
  <!-- 主要元素: 层叠向上的波浪形，象征成长与超越 -->
  <path d="M12,48 C18,42 24,44 32,36 C40,28 46,24 52,18 L52,52 L12,52 Z" fill="url(#blueRiseGradient)" />
  
  <!-- 象征"孜孜以求"的向上箭头元素 -->
  <path d="M32,10 L38,18 L34,18 L34,28 L30,28 L30,18 L26,18 Z" fill="#3498db" filter="url(#glow)" />
  
  <!-- 点状元素，象征导航中的路标与成长过程中的里程碑 -->
  <circle cx="22" cy="40" r="2" fill="white" opacity="0.8" />
  <circle cx="38" cy="32" r="2" fill="white" opacity="0.8" />
  <circle cx="30" cy="44" r="1.5" fill="white" opacity="0.8" />
  <circle cx="44" cy="24" r="1.5" fill="white" opacity="0.8" />
  
  <!-- 象征"青出于蓝"的图形：细线从蓝色延伸至青色 -->
  <path d="M14,48 C24,36 32,30 50,16" fill="none" stroke="white" stroke-width="1.5" stroke-opacity="0.6" />
</svg> 